<svg viewBox="0 0 48 48" fill="none" xmlns="http://www.w3.org/2000/svg">
<circle cx="24" cy="24" r="24" fill="#D2E9FF"/>
<path fill-rule="evenodd" clip-rule="evenodd" d="M23.4342 16.0433C23.5017 16.0156 23.5761 16 23.654 16C23.7319 16 23.8063 16.0156 23.8738 16.0433L23.8755 16.0444C23.9436 16.0721 24.0071 16.1137 24.0619 16.169L26.3696 18.4767C26.5946 18.7017 26.5946 19.0675 26.3696 19.2925C26.1446 19.5175 25.7788 19.5175 25.5538 19.2925L24.2309 17.9696V24.6538C24.2309 24.7542 24.2055 24.8482 24.1605 24.9302C24.1155 25.0127 24.0503 25.0848 23.9661 25.139L17.0113 29.6101L18.025 29.8634C18.3336 29.9407 18.5217 30.254 18.4444 30.5632C18.3671 30.8719 18.0538 31.0599 17.7446 30.9826L15.4369 30.4057L15.4179 30.4005L15.4006 30.3953L15.3833 30.3896L15.3665 30.3832L15.3533 30.378L15.3434 30.374C15.3071 30.3573 15.2725 30.3376 15.2408 30.3151C15.1831 30.2736 15.1323 30.2211 15.0919 30.1582C15.0481 30.0896 15.0204 30.0151 15.0077 29.9396C14.995 29.8646 14.9979 29.7849 15.0175 29.7059L15.5944 27.3982C15.6717 27.0896 15.985 26.9015 16.2942 26.9788C16.6029 27.0561 16.7909 27.3694 16.7136 27.6786L16.4898 28.5734L23.0771 24.3388V17.9696L21.7542 19.2925C21.5292 19.5175 21.1634 19.5175 20.9384 19.2925C20.7134 19.0675 20.7134 18.7017 20.9384 18.4767L23.2461 16.169L23.2605 16.1552L23.2744 16.1425L23.2911 16.1287L23.3073 16.116L23.3217 16.105L23.3338 16.0969L23.3367 16.0952C23.3673 16.075 23.399 16.0577 23.4325 16.0444L23.4342 16.0433Z" fill="#1671EF"/>
<path fill-rule="evenodd" clip-rule="evenodd" d="M30.2975 29.61L25.0734 26.2518C24.8058 26.0793 24.7279 25.7221 24.9004 25.4545C25.0723 25.1868 25.4294 25.1089 25.6977 25.2808L30.819 28.5733L30.5952 27.6785C30.5178 27.3693 30.7059 27.056 31.0146 26.9787C31.3238 26.9014 31.6371 27.0895 31.7144 27.3981L32.2913 29.7058L32.2948 29.7208L32.2976 29.7352L32.3005 29.7496L32.3028 29.7641L32.3046 29.7785L32.3063 29.7952L32.3075 29.8096L32.308 29.8235L32.3086 29.8373V29.8512V29.8575C32.308 29.8846 32.3057 29.9112 32.3017 29.9371L32.3005 29.9423C32.2878 30.0173 32.2607 30.0906 32.2169 30.1581C32.1776 30.2192 32.1286 30.2706 32.0726 30.3116L32.0628 30.3185C32.0069 30.3577 31.9423 30.3877 31.8719 30.4056L29.5642 30.9825C29.255 31.0598 28.9417 30.8717 28.8644 30.5631C28.7871 30.2539 28.9752 29.9406 29.2838 29.8633L30.2975 29.61Z" fill="#1671EF"/>
</svg>
